<svg id="SlidersHorizontal" xmlns="http://www.w3.org/2000/svg" width="24" height="24" viewBox="0 0 24 24">
  <path id="Vector" d="M0,0H24V24H0Z" fill="none"/>
  <path id="Vector-2" data-name="Vector" d="M10.125,0H0" transform="translate(3.75 16.124)" fill="none" stroke="#fff" stroke-linecap="round" stroke-linejoin="round" stroke-width="1"/>
  <path id="Vector-3" data-name="Vector" d="M2.625,0H0" transform="translate(17.625 16.124)" fill="none" stroke="#fff" stroke-linecap="round" stroke-linejoin="round" stroke-width="1"/>
  <path id="Vector-4" data-name="Vector" d="M3.75,1.875A1.875,1.875,0,1,1,1.875,0,1.875,1.875,0,0,1,3.75,1.875Z" transform="translate(13.875 14.249)" fill="none" stroke="#fff" stroke-linecap="round" stroke-linejoin="round" stroke-width="1"/>
  <path id="Vector-5" data-name="Vector" d="M4.125,0H0" transform="translate(3.75 7.874)" fill="none" stroke="#fff" stroke-linecap="round" stroke-linejoin="round" stroke-width="1"/>
  <path id="Vector-6" data-name="Vector" d="M8.625,0H0" transform="translate(11.625 7.874)" fill="none" stroke="#fff" stroke-linecap="round" stroke-linejoin="round" stroke-width="1"/>
  <path id="Vector-7" data-name="Vector" d="M3.75,1.875A1.875,1.875,0,1,1,1.875,0,1.875,1.875,0,0,1,3.75,1.875Z" transform="translate(7.875 5.999)" fill="none" stroke="#fff" stroke-linecap="round" stroke-linejoin="round" stroke-width="1"/>
</svg>
